<svg width="295" height="513" viewBox="0 0 295 513" fill="none" xmlns="http://www.w3.org/2000/svg">
<g filter="url(#filter0_bf_29_70)">
<ellipse cx="147.5" cy="147" rx="143.5" ry="143" fill="#402609"/>
</g>
<ellipse cx="147" cy="183" rx="82" ry="99" fill="#CEB89D"/>
<path d="M24 323C24 300.909 41.9086 283 64 283H230C252.091 283 270 300.909 270 323V473C270 495.091 252.091 513 230 513H64C41.9086 513 24 495.091 24 473V323Z" fill="#1300EA"/>
<g filter="url(#filter1_f_29_70)">
<ellipse cx="145" cy="248.5" rx="75" ry="36.5" fill="#402609"/>
</g>
<g filter="url(#filter2_f_29_70)">
<ellipse cx="147.5" cy="92.5" rx="119.5" ry="36.5" fill="#402609"/>
</g>
<ellipse cx="147" cy="220" rx="74" ry="45" fill="#CEB89D"/>
<ellipse cx="147" cy="154.5" rx="74" ry="65.5" fill="#CEB89D"/>
<circle cx="173.5" cy="170.5" r="12.5" fill="#D9D9D9"/>
<circle cx="174" cy="171" r="5" fill="#402609"/>
<circle cx="119.5" cy="170.5" r="12.5" fill="#D9D9D9"/>
<circle cx="120" cy="171" r="5" fill="#402609"/>
<path d="M24 323C24 300.909 41.9086 283 64 283H230C252.091 283 270 300.909 270 323V473C270 495.091 252.091 513 230 513H64C41.9086 513 24 495.091 24 473V323Z" fill="#1300EA"/>
<path d="M24 364H270V513H24V364Z" fill="#1300EA"/>
<line x1="82.5" y1="341" x2="82.5" y2="513" stroke="black" stroke-width="5"/>
<line x1="205.5" y1="341" x2="205.5" y2="513" stroke="black" stroke-width="5"/>
<ellipse cx="147" cy="214" rx="36" ry="17" fill="#402609"/>
<ellipse cx="147" cy="209" rx="36" ry="17" fill="#CEB89D"/>
<defs>
<filter id="filter0_bf_29_70" x="0" y="0" width="295" height="294" filterUnits="userSpaceOnUse" color-interpolation-filters="sRGB">
<feFlood flood-opacity="0" result="BackgroundImageFix"/>
<feGaussianBlur in="BackgroundImageFix" stdDeviation="2"/>
<feComposite in2="SourceAlpha" operator="in" result="effect1_backgroundBlur_29_70"/>
<feBlend mode="normal" in="SourceGraphic" in2="effect1_backgroundBlur_29_70" result="shape"/>
<feGaussianBlur stdDeviation="2" result="effect2_foregroundBlur_29_70"/>
</filter>
<filter id="filter1_f_29_70" x="66" y="208" width="158" height="81" filterUnits="userSpaceOnUse" color-interpolation-filters="sRGB">
<feFlood flood-opacity="0" result="BackgroundImageFix"/>
<feBlend mode="normal" in="SourceGraphic" in2="BackgroundImageFix" result="shape"/>
<feGaussianBlur stdDeviation="2" result="effect1_foregroundBlur_29_70"/>
</filter>
<filter id="filter2_f_29_70" x="24" y="52" width="247" height="81" filterUnits="userSpaceOnUse" color-interpolation-filters="sRGB">
<feFlood flood-opacity="0" result="BackgroundImageFix"/>
<feBlend mode="normal" in="SourceGraphic" in2="BackgroundImageFix" result="shape"/>
<feGaussianBlur stdDeviation="2" result="effect1_foregroundBlur_29_70"/>
</filter>
</defs>
</svg>
